<svg xmlns="http://www.w3.org/2000/svg" width="24" height="24" viewBox="0 0 24 24">
  <path fill="#969696" fill-rule="evenodd" d="M9,0 C8.172,0 7.5,0.672 7.5,1.5 L7.5,2.1953125 C4.9131836,2.862095 3,5.2048001 3,8 L3,13 L15,13 L15,8 C15,5.2048001 13.086816,2.862095 10.5,2.1953125 L10.5,1.5 C10.5,0.672 9.828,0 9,0 Z M2,15 C1.63936408,14.9948997 1.30391864,15.1843753 1.12211228,15.4958728 C0.940305922,15.8073704 0.940305922,16.1926296 1.12211228,16.5041272 C1.30391864,16.8156247 1.63936408,17.0051003 2,17 L7.269531,17 C7.09344145,17.3038851 7.00048082,17.6487829 7,18 C7,19.1045695 7.8954305,20 9,20 C10.1045695,20 11,19.1045695 11,18 C10.9989258,17.6486051 10.9052884,17.3036956 10.728516,17 L16,17 C16.3606359,17.0051003 16.6960814,16.8156247 16.8778877,16.5041272 C17.0596941,16.1926296 17.0596941,15.8073704 16.8778877,15.4958728 C16.6960814,15.1843753 16.3606359,14.9948997 16,15 L2,15 Z" transform="translate(3 2)"/>
</svg>
