<svg xmlns="http://www.w3.org/2000/svg" width="24" height="24" viewBox="0 0 24 24">
  <path fill="#969696" fill-rule="evenodd" d="M11,0 C10.7328816,0 10.4768796,0.106936109 10.289062,0.296875 L0.203125,9.097656 C0.075381483,9.19191779 -1.11022302e-16,9.34124329 -1.11022302e-16,9.5 C-1.11022302e-16,9.77614237 0.223857625,10 0.5,10 L3,10 L3,18 C3,18.552 3.448,19 4,19 L8,19 C8.552,19 9,18.552 9,18 L9,12 L13,12 L13,18 C13,18.552 13.448,19 14,19 L18,19 C18.552,19 19,18.552 19,18 L19,10 L21.5,10 C21.7761424,10 22,9.77614237 22,9.5 C22,9.34124329 21.9246185,9.19191779 21.796875,9.097656 L11.716797,0.3027344 C11.7148521,0.300773184 11.7128991,0.298820033 11.710938,0.296875 C11.5231204,0.106936109 11.2671184,0 11,0 Z" transform="translate(1 3)"/>
</svg>
