<svg xmlns="http://www.w3.org/2000/svg" width="376" height="376" viewBox="0 0 376 376">
  <defs>
    <linearGradient id="student-a" x1="46.297%" x2="62.631%" y1="49.879%" y2="64.068%">
      <stop offset="0%" stop-color="#92F37F"/>
      <stop offset="100%" stop-color="#4AB272"/>
    </linearGradient>
    <linearGradient id="student-b" x1="53.019%" x2="-7.102%" y1="52.509%" y2="37.673%">
      <stop offset="0%" stop-color="#92F37F" stop-opacity="0"/>
      <stop offset="100%" stop-color="#FFEE83"/>
    </linearGradient>
    <linearGradient id="student-c" x1="57.625%" x2="85.193%" y1="55.74%" y2="67.695%">
      <stop offset="0%" stop-color="#4AB272" stop-opacity="0"/>
      <stop offset="100%" stop-color="#009245"/>
    </linearGradient>
    <linearGradient id="student-d" x1="53.939%" x2="-4.78%" y1="59.835%" y2="47.477%">
      <stop offset="0%" stop-color="#4AB272" stop-opacity="0"/>
      <stop offset="100%" stop-color="#009245"/>
    </linearGradient>
    <linearGradient id="student-e" x1="1.644%" x2="96.289%" y1="41.549%" y2="53.438%">
      <stop offset="0%" stop-color="#FFDAAA"/>
      <stop offset="42.13%" stop-color="#FFD8A8"/>
      <stop offset="65.19%" stop-color="#FED1A0"/>
      <stop offset="83.59%" stop-color="#FDC592"/>
      <stop offset="99.51%" stop-color="#FCB47F"/>
      <stop offset="100%" stop-color="#FCB37E"/>
    </linearGradient>
    <linearGradient id="student-f" x1="61.858%" x2="48.575%" y1="67.622%" y2="6.514%">
      <stop offset="0%" stop-color="#FCB37E" stop-opacity="0"/>
      <stop offset="100%" stop-color="#FF7044"/>
    </linearGradient>
    <linearGradient id="student-g" x1="27.643%" x2="67.8%" y1="-7.869%" y2="96.068%">
      <stop offset="0%" stop-color="#FFDAAA"/>
      <stop offset="57.52%" stop-color="#FDC592"/>
      <stop offset="100%" stop-color="#FCB37E"/>
    </linearGradient>
    <linearGradient id="student-h" x1="27.641%" x2="67.798%" y1="-7.869%" y2="96.068%">
      <stop offset="0%" stop-color="#FFDAAA"/>
      <stop offset="57.52%" stop-color="#FDC592"/>
      <stop offset="100%" stop-color="#FCB37E"/>
    </linearGradient>
    <radialGradient id="student-i" cx="32.812%" cy="40.614%" r="87.581%" fx="32.812%" fy="40.614%" gradientTransform="matrix(1 0 0 .65529 0 .14)">
      <stop offset="0%" stop-color="#FFDAAA"/>
      <stop offset="42.13%" stop-color="#FFD8A8"/>
      <stop offset="65.19%" stop-color="#FED1A0"/>
      <stop offset="83.59%" stop-color="#FDC592"/>
      <stop offset="99.51%" stop-color="#FCB47F"/>
      <stop offset="100%" stop-color="#FCB37E"/>
    </radialGradient>
    <linearGradient id="student-j" x1="54.685%" x2="46.293%" y1="55.471%" y2="27.55%">
      <stop offset="0%" stop-color="#FCB37E" stop-opacity="0"/>
      <stop offset="100%" stop-color="#FF7044"/>
    </linearGradient>
    <linearGradient id="student-k" x1="31.292%" x2="96.049%" y1="31.295%" y2="96.052%">
      <stop offset="0%" stop-color="#7E8595"/>
      <stop offset="100%" stop-color="#555A66"/>
    </linearGradient>
    <linearGradient id="student-l" x1="43.093%" x2="-.363%" y1="40.046%" y2="-22.6%">
      <stop offset="0%" stop-color="#BEC3D2" stop-opacity="0"/>
      <stop offset="31.83%" stop-color="#C2C7D5" stop-opacity=".318"/>
      <stop offset="60.82%" stop-color="#CDD1DE" stop-opacity=".608"/>
      <stop offset="88.61%" stop-color="#DFE3ED" stop-opacity=".886"/>
      <stop offset="100%" stop-color="#E9EDF5"/>
    </linearGradient>
    <linearGradient id="student-m" x1="49.048%" x2="121.6%" y1="67.443%" y2="-67.492%">
      <stop offset="0%" stop-color="#555A66" stop-opacity="0"/>
      <stop offset="100%" stop-color="#555A66"/>
    </linearGradient>
    <linearGradient id="student-n" x1="31.292%" x2="96.052%" y1="31.295%" y2="96.052%">
      <stop offset="0%" stop-color="#7E8595"/>
      <stop offset="100%" stop-color="#555A66"/>
    </linearGradient>
    <linearGradient id="student-o" x1="49.051%" x2="121.603%" y1="67.443%" y2="-67.492%">
      <stop offset="0%" stop-color="#555A66" stop-opacity="0"/>
      <stop offset="100%" stop-color="#555A66"/>
    </linearGradient>
    <linearGradient id="student-p" x1="50.001%" x2="50.001%" y1="28.462%" y2="130.874%">
      <stop offset="0%" stop-color="#FCB37E" stop-opacity="0"/>
      <stop offset="100%" stop-color="#FF7044"/>
    </linearGradient>
    <linearGradient id="student-q" x1="62.163%" x2="49.699%" y1="-1.689%" y2="52.046%">
      <stop offset="0%" stop-color="#FFDA45"/>
      <stop offset="100%" stop-color="#FFA425"/>
    </linearGradient>
    <linearGradient id="student-r" x1="0%" y1="50%" y2="50%">
      <stop offset="0%" stop-color="#FFDA45"/>
      <stop offset="100%" stop-color="#FFA425"/>
    </linearGradient>
    <linearGradient id="student-s" x1="63.615%" x2=".234%" y1="58.378%" y2="31.655%">
      <stop offset="0%" stop-color="#FFDA45" stop-opacity="0"/>
      <stop offset="100%" stop-color="#FCEE21"/>
    </linearGradient>
    <linearGradient id="student-t" x1="48.135%" x2="65.978%" y1="49.969%" y2="67.439%">
      <stop offset="0%" stop-color="#FF7044"/>
      <stop offset="100%" stop-color="#F92814"/>
    </linearGradient>
    <linearGradient id="student-u" x1="48.014%" x2="39.498%" y1="48.377%" y2="29.86%">
      <stop offset="0%" stop-color="#FF7044" stop-opacity="0"/>
      <stop offset="100%" stop-color="#FFA425"/>
    </linearGradient>
    <linearGradient id="student-v" x1="48.135%" x2="65.978%" y1="49.969%" y2="67.439%">
      <stop offset="0%" stop-color="#FF7044"/>
      <stop offset="100%" stop-color="#F92814"/>
    </linearGradient>
    <linearGradient id="student-w" x1="35.824%" x2="-12.408%" y1="50%" y2="50%">
      <stop offset="0%" stop-color="#4AB272" stop-opacity="0"/>
      <stop offset="100%" stop-color="#009245"/>
    </linearGradient>
  </defs>
  <g fill="none" transform="translate(89 38)">
    <path fill="url(#student-a)" d="M153.97074,221.704821 L43.8170619,221.704821 C19.6386805,221.704821 0.0388511753,241.305238 0.0388511753,265.483031 L0.0388511753,295.878189 C0.0388511753,298.272835 1.98023263,300.214216 4.3748778,300.214216 L193.413512,300.214216 C195.808158,300.214216 197.749539,298.272835 197.749539,295.878189 L197.749539,265.483031 C197.749539,241.30465 178.149121,221.704821 153.97074,221.704821 Z"/>
    <path fill="url(#student-b)" d="M157.087075,226.577111 L54.7754479,226.577111 C32.3182913,226.577111 14.1135724,244.782419 14.1135724,267.238987 L14.1135724,296.186055 C14.1135724,298.409991 15.9166201,300.213039 18.1405556,300.213039 L193.413512,300.213039 C195.808158,300.213039 197.74895,298.271657 197.74895,295.877012 L197.74895,267.238398 C197.74895,244.782419 179.544231,226.577111 157.087075,226.577111 L157.087075,226.577111 Z"/>
    <path fill="url(#student-c)" d="M143.012354,226.577111 L40.7007267,226.577111 C18.2435701,226.577111 0.0388511753,244.782419 0.0388511753,267.238987 L0.0388511753,296.186055 C0.0388511753,298.409991 1.8418989,300.213039 4.06583436,300.213039 L179.338791,300.213039 C181.733436,300.213039 183.674229,298.271657 183.674229,295.877012 L183.674229,267.238398 C183.674229,244.782419 165.46951,226.577111 143.012354,226.577111 Z"/>
    <polygon fill="url(#student-d)" points="48.858 300.214 140.588 300.214 62.079 221.705 48.858 221.705"/>
    <path fill="url(#student-e)" d="M103.940433,253.121294 L93.8473686,253.121294 C81.9489018,253.121294 72.3032145,243.475606 72.3032145,231.57714 L72.3032145,201.904849 L125.484587,201.904849 L125.484587,231.57714 C125.484587,243.475606 115.8389,253.121294 103.940433,253.121294 Z"/>
    <path fill="url(#student-f)" d="M125.484587,231.57714 L125.484587,201.904849 L72.3032145,201.904849 L72.3032145,204.41075 L116.773683,248.881218 C122.059208,244.955483 125.484587,238.66689 125.484587,231.57714 Z"/>
    <circle cx="35.641" cy="126.413" r="18.69" fill="url(#student-g)"/>
    <circle cx="162.147" cy="126.413" r="18.69" fill="url(#student-h)"/>
    <path fill="url(#student-i)" d="M98.8939008,210.240192 C63.8548499,210.240192 35.4499315,181.835273 35.4499315,146.796223 L35.4499315,80.0475488 C35.4499315,45.0084979 63.8548499,16.6035796 98.8939008,16.6035796 C133.932952,16.6035796 162.33787,45.0084979 162.33787,80.0475488 L162.33787,146.796223 C162.33787,181.835273 133.932952,210.240192 98.8939008,210.240192 Z"/>
    <path fill="url(#student-j)" d="M35.4493428,117.244606 L123.497291,205.291965 C145.188019,196.157818 160.732021,175.310631 162.216607,150.670744 C162.238387,150.288119 162.260168,149.904905 162.275473,149.524046 C162.28548,149.28623 162.294898,149.047825 162.302551,148.808831 C162.323154,148.143063 162.337281,147.479061 162.337281,146.818591 C162.337281,146.810939 162.337281,146.803875 162.337281,146.796223 L162.337281,80.0475488 C162.337281,57.6003993 150.680163,37.876364 133.088822,26.5983387 C132.659693,26.3234372 132.227032,26.053245 131.791428,25.7883506 C130.919631,25.2585618 130.033706,24.7487873 129.134243,24.260793 C127.336493,23.2842157 125.485764,22.391816 123.588532,21.5888917 C115.998425,18.3783719 107.653075,16.6029909 98.8933121,16.6029909 C91.2284461,16.6029909 83.8808648,17.9621934 77.0789658,20.4527892 C76.5933261,20.6305627 76.1100411,20.8142228 75.6296993,21.0037695 C74.6696043,21.3822741 73.7201051,21.7837363 72.7835563,22.2075673 C69.5047526,23.6897985 66.3742897,25.4433992 63.4210118,27.4383482 C60.4677338,29.4338859 57.6916407,31.6707717 55.1203993,34.1219277 C54.3857589,34.8224262 53.6681894,35.5399956 52.967691,36.274636 C50.1662858,39.212609 47.6444913,42.4190082 45.444102,45.8514507 C45.1692005,46.2805796 44.8990083,46.7132404 44.6341139,47.1488445 C38.8058489,56.7415529 35.4493428,68.0019185 35.4493428,80.0469602 L35.4493428,117.244606 L35.4493428,117.244606 Z"/>
    <circle cx="67.022" cy="121.038" r="11.263" fill="url(#student-k)"/>
    <circle cx="67.022" cy="121.038" r="9.4" fill="url(#student-l)"/>
    <path fill="url(#student-m)" d="M72.060689,110.963077 C72.8200529,112.47945 73.2485931,114.190079 73.2485931,116.001368 C73.2485931,122.221677 68.2061815,127.264677 61.9852842,127.264677 C60.1739953,127.264677 58.4627777,126.836726 56.9469932,126.076773 C58.7965446,129.767635 62.6127896,132.301791 67.022398,132.301791 C73.2427066,132.301791 78.2857069,127.259379 78.2857069,121.038482 C78.2851182,116.628874 75.7515507,112.81204 72.060689,110.963077 L72.060689,110.963077 Z"/>
    <circle cx="130.765" cy="121.038" r="11.263" fill="url(#student-n)"/>
    <circle cx="130.765" cy="121.038" r="9.4" fill="url(#student-l)"/>
    <path fill="url(#student-o)" d="M135.803695,110.963077 C136.563058,112.47945 136.991599,114.190079 136.991599,116.001368 C136.991599,122.221677 131.949187,127.264677 125.72829,127.264677 C123.917001,127.264677 122.205783,126.836726 120.689999,126.076773 C122.53955,129.767635 126.355795,132.301791 130.765404,132.301791 C136.985712,132.301791 142.028712,127.259379 142.028712,121.038482 C142.028712,116.628874 139.494556,112.81204 135.803695,110.963077 L135.803695,110.963077 Z"/>
    <path fill="url(#student-p)" d="M102.49823,164.841416 L95.2895713,164.841416 C89.5131079,164.841416 85.0122581,159.830792 85.630345,154.087293 L89.398909,119.05354 L108.388304,119.05354 L112.156868,154.087293 C112.774955,159.831381 108.274694,164.841416 102.49823,164.841416 L102.49823,164.841416 Z"/>
    <path fill="url(#student-q)" d="M172.723496,117.44828 C150.633659,117.44828 132.726211,99.5408317 132.726211,77.4509953 L132.726211,23.1776693 C132.726211,17.5642632 137.277096,13.0133778 142.890502,13.0133778 C163.847179,13.0133778 180.836327,30.0025258 180.836327,50.9592029 L180.836327,109.335448 C180.836327,113.816284 177.203742,117.44828 172.723496,117.44828 Z"/>
    <path fill="url(#student-r)" d="M49.9661434,117.44828 L27.2529222,117.44828 C21.5635796,117.44828 16.9514742,112.836175 16.9514742,107.146832 L16.9514742,88.171565 C16.9514742,39.4757374 56.4272115,2.84217094e-14 105.123039,2.84217094e-14 L109.866415,2.84217094e-14 C125.757723,2.84217094e-14 138.640419,12.8826965 138.640419,28.7740045 C138.640419,77.747677 98.9398158,117.44828 49.9661434,117.44828 L49.9661434,117.44828 Z"/>
    <path fill="url(#student-s)" d="M117.008556,7.14214106 L112.26518,7.14214106 C63.5693526,7.14214106 24.0936152,46.6178784 24.0936152,95.3137061 L24.0936152,114.288973 C24.0936152,115.250246 24.2348922,116.177376 24.4815383,117.060357 C25.3645196,117.307003 26.2910612,117.44828 27.2529222,117.44828 L49.9661434,117.44828 C98.9398158,117.44828 138.640419,77.747677 138.640419,28.7740045 C138.640419,22.6525898 136.723172,16.9820842 133.464972,12.3181772 C128.800476,9.0593877 123.12997,7.14214106 117.008556,7.14214106 L117.008556,7.14214106 Z"/>
    <path fill="url(#student-t)" d="M62.9977694,300.213627 L30.8925709,300.213627 L30.8925709,225.870137 C30.8925709,220.403895 35.3239595,215.972506 40.7902021,215.972506 L53.1001382,215.972506 C58.5663808,215.972506 62.9977694,220.403895 62.9977694,225.870137 L62.9977694,300.213627 Z"/>
    <path fill="url(#student-u)" d="M53.1001382,215.972506 L47.5455974,215.972506 C42.0793548,215.972506 37.6479662,220.403895 37.6479662,225.870137 L37.6479662,300.213627 L62.9971808,300.213627 L62.9971808,225.870137 C62.9977694,220.403895 58.5663808,215.972506 53.1001382,215.972506 L53.1001382,215.972506 Z"/>
    <path fill="url(#student-v)" d="M166.895231,300.213627 L134.790032,300.213627 L134.790032,225.870137 C134.790032,220.403895 139.221421,215.972506 144.687663,215.972506 L156.998188,215.972506 C162.464431,215.972506 166.895819,220.403895 166.895819,225.870137 L166.895819,300.213627 L166.895231,300.213627 Z"/>
    <path fill="url(#student-u)" d="M156.997599,215.972506 L151.443059,215.972506 C145.976816,215.972506 141.545427,220.403895 141.545427,225.870137 L141.545427,300.213627 L166.894642,300.213627 L166.894642,225.870137 C166.895231,220.403895 162.463842,215.972506 156.997599,215.972506 Z"/>
    <path fill="url(#student-w)" d="M197.746596,265.483031 L197.746596,295.875246 C197.746596,298.271069 195.809924,300.213627 193.414101,300.213627 L166.895231,300.213627 L166.895231,225.872492 C166.895231,225.077809 166.801046,224.306672 166.62445,223.564968 C184.631381,228.992359 197.746596,245.704251 197.746596,265.483031 L197.746596,265.483031 Z"/>
  </g>
</svg>
