<svg xmlns="http://www.w3.org/2000/svg" width="376" height="376" viewBox="0 0 376 376">
  <defs>
    <linearGradient id="parent-a" x1="46.297%" x2="62.631%" y1="49.879%" y2="64.068%">
      <stop offset="0%" stop-color="#7E8595"/>
      <stop offset="100%" stop-color="#555A66"/>
    </linearGradient>
    <linearGradient id="parent-b" x1="50.515%" x2="40.094%" y1="45.715%" y2="99.863%">
      <stop offset="0%" stop-color="#7E8595"/>
      <stop offset="58.16%" stop-color="#646977"/>
      <stop offset="100%" stop-color="#555A66"/>
    </linearGradient>
    <linearGradient id="parent-c" x1="34.616%" x2="-7.27%" y1="45.917%" y2="28.265%">
      <stop offset="0%" stop-color="#BEC3D2" stop-opacity="0"/>
      <stop offset="22.1%" stop-color="#C5C9D7" stop-opacity=".221"/>
      <stop offset="53.43%" stop-color="#D7DAE3" stop-opacity=".534"/>
      <stop offset="90.14%" stop-color="#F6F6F8" stop-opacity=".901"/>
      <stop offset="100%" stop-color="#FFF"/>
    </linearGradient>
    <linearGradient id="parent-d" x1="53.95%" x2="90.066%" y1="54.166%" y2="69.934%">
      <stop offset="0%" stop-color="#555A66" stop-opacity="0"/>
      <stop offset="100%" stop-color="#555A66"/>
    </linearGradient>
    <linearGradient id="parent-e" x1="51.483%" x2="28.282%" y1="54.034%" y2="29.626%">
      <stop offset="0%" stop-color="#555A66" stop-opacity="0"/>
      <stop offset="100%" stop-color="#555A66"/>
    </linearGradient>
    <linearGradient id="parent-f" x1="1.644%" x2="96.289%" y1="41.549%" y2="53.438%">
      <stop offset="0%" stop-color="#FFDAAA"/>
      <stop offset="42.13%" stop-color="#FFD8A8"/>
      <stop offset="65.19%" stop-color="#FED1A0"/>
      <stop offset="83.59%" stop-color="#FDC592"/>
      <stop offset="99.51%" stop-color="#FCB47F"/>
      <stop offset="100%" stop-color="#FCB37E"/>
    </linearGradient>
    <linearGradient id="parent-g" x1="61.857%" x2="48.575%" y1="67.622%" y2="6.513%">
      <stop offset="0%" stop-color="#FCB37E" stop-opacity="0"/>
      <stop offset="100%" stop-color="#FF7044"/>
    </linearGradient>
    <linearGradient id="parent-h" x1="27.641%" x2="67.799%" y1="-7.868%" y2="96.067%">
      <stop offset="0%" stop-color="#FFDAAA"/>
      <stop offset="57.52%" stop-color="#FDC592"/>
      <stop offset="100%" stop-color="#FCB37E"/>
    </linearGradient>
    <radialGradient id="parent-i" cx="32.812%" cy="40.614%" r="87.581%" fx="32.812%" fy="40.614%" gradientTransform="matrix(1 0 0 .65529 0 .14)">
      <stop offset="0%" stop-color="#FFDAAA"/>
      <stop offset="42.13%" stop-color="#FFD8A8"/>
      <stop offset="65.19%" stop-color="#FED1A0"/>
      <stop offset="83.59%" stop-color="#FDC592"/>
      <stop offset="99.51%" stop-color="#FCB47F"/>
      <stop offset="100%" stop-color="#FCB37E"/>
    </radialGradient>
    <linearGradient id="parent-j" x1="45.133%" x2="29.143%" y1="36.247%" y2="-8.926%">
      <stop offset="0%" stop-color="#FFDAAA" stop-opacity="0"/>
      <stop offset="100%" stop-color="#FFF"/>
    </linearGradient>
    <linearGradient id="parent-k" x1="31.293%" x2="96.05%" y1="31.293%" y2="96.05%">
      <stop offset="0%" stop-color="#7E8595"/>
      <stop offset="100%" stop-color="#555A66"/>
    </linearGradient>
    <linearGradient id="parent-l" x1="43.093%" x2="-.364%" y1="40.044%" y2="-22.601%">
      <stop offset="0%" stop-color="#BEC3D2" stop-opacity="0"/>
      <stop offset="31.83%" stop-color="#C2C7D5" stop-opacity=".318"/>
      <stop offset="60.82%" stop-color="#CDD1DE" stop-opacity=".608"/>
      <stop offset="88.61%" stop-color="#DFE3ED" stop-opacity=".886"/>
      <stop offset="100%" stop-color="#E9EDF5"/>
    </linearGradient>
    <linearGradient id="parent-m" x1="49.051%" x2="121.602%" y1="67.445%" y2="-67.492%">
      <stop offset="0%" stop-color="#555A66" stop-opacity="0"/>
      <stop offset="100%" stop-color="#555A66"/>
    </linearGradient>
    <linearGradient id="parent-n" x1="49.049%" x2="121.602%" y1="67.445%" y2="-67.492%">
      <stop offset="0%" stop-color="#555A66" stop-opacity="0"/>
      <stop offset="100%" stop-color="#555A66"/>
    </linearGradient>
    <linearGradient id="parent-o" x1="64.844%" x2="34.877%" y1="69.08%" y2="27.959%">
      <stop offset="0%" stop-color="#FCB37E" stop-opacity="0"/>
      <stop offset="100%" stop-color="#FF7044"/>
    </linearGradient>
    <linearGradient id="parent-p" x1="42.923%" x2="56.066%" y1="46.498%" y2="58.687%">
      <stop offset="0%" stop-color="#F9F7FC"/>
      <stop offset="100%" stop-color="#F0DDFC"/>
    </linearGradient>
    <linearGradient id="parent-q" x1="52.272%" x2="108.005%" y1="54.994%" y2="87.509%">
      <stop offset="0%" stop-color="#F0DDFC" stop-opacity="0"/>
      <stop offset="28.89%" stop-color="#C8B7E0" stop-opacity=".289"/>
      <stop offset="59.15%" stop-color="#A595C8" stop-opacity=".592"/>
      <stop offset="83.95%" stop-color="#8F81B8" stop-opacity=".84"/>
      <stop offset="100%" stop-color="#8779B3"/>
    </linearGradient>
    <linearGradient id="parent-r" x1="53.346%" x2="7.904%" y1="52.949%" y2="41.194%">
      <stop offset="0%" stop-color="#E9EDF5" stop-opacity="0"/>
      <stop offset="100%" stop-color="#FFF"/>
    </linearGradient>
    <linearGradient id="parent-s" x1="50%" x2="50%" y1="28.462%" y2="130.874%">
      <stop offset="0%" stop-color="#FCB37E" stop-opacity="0"/>
      <stop offset="100%" stop-color="#FF7044"/>
    </linearGradient>
    <linearGradient id="parent-t" x1="49.508%" x2="58.798%" y1="40.449%" y2="55.564%">
      <stop offset="0%" stop-color="#F9F7FC"/>
      <stop offset="100%" stop-color="#F0DDFC"/>
    </linearGradient>
    <linearGradient id="parent-u" x1="42.204%" x2="68.808%" y1="25.22%" y2="101.24%">
      <stop offset="0%" stop-color="#F9F7FC"/>
      <stop offset="100%" stop-color="#F0DDFC"/>
    </linearGradient>
    <linearGradient id="parent-v" x1="74.407%" x2="-88.674%" y1="84.708%" y2="-12.292%">
      <stop offset="0%" stop-color="#F0DDFC" stop-opacity="0"/>
      <stop offset="28.89%" stop-color="#C8B7E0" stop-opacity=".289"/>
      <stop offset="59.15%" stop-color="#A595C8" stop-opacity=".592"/>
      <stop offset="83.95%" stop-color="#8F81B8" stop-opacity=".84"/>
      <stop offset="100%" stop-color="#8779B3"/>
    </linearGradient>
    <linearGradient id="parent-w" x1="50%" x2="50%" y1="31.314%" y2="78.36%">
      <stop offset="0%" stop-color="#FFDA45"/>
      <stop offset="100%" stop-color="#FFA425"/>
    </linearGradient>
    <linearGradient id="parent-x" x1="24.057%" x2="86.666%" y1="14.057%" y2="100.803%">
      <stop offset="0%" stop-color="#FFDA45"/>
      <stop offset="100%" stop-color="#FFA425"/>
    </linearGradient>
    <linearGradient id="parent-y" x1="92.521%" x2="5.452%" y1="84.474%" y2="13.884%">
      <stop offset="0%" stop-color="#FFDA45"/>
      <stop offset="100%" stop-color="#FFA425"/>
    </linearGradient>
    <linearGradient id="parent-z" x1="58.941%" x2="18.478%" y1="61.498%" y2="7.501%">
      <stop offset="0%" stop-color="#F92814" stop-opacity="0"/>
      <stop offset="100%" stop-color="#C1272D"/>
    </linearGradient>
    <linearGradient id="parent-A" x1="91.95%" x2="6.052%" y1="83.073%" y2="15.351%">
      <stop offset="0%" stop-color="#FFF" stop-opacity="0"/>
      <stop offset="100%" stop-color="#FFF"/>
    </linearGradient>
    <linearGradient id="parent-B" x1="57.884%" x2="31.906%" y1="60.206%" y2="-5.445%">
      <stop offset="0%" stop-color="#FCB37E" stop-opacity="0"/>
      <stop offset="100%" stop-color="#FF7044"/>
    </linearGradient>
    <linearGradient id="parent-C" x1="50%" x2="50%" y1="30.18%" y2="123.026%">
      <stop offset="0%" stop-color="#7E8595"/>
      <stop offset="100%" stop-color="#555A66"/>
    </linearGradient>
  </defs>
  <g fill="none" transform="translate(83 38)">
    <path fill="url(#parent-a)" d="M163.399858,217.532649 L46.5703251,217.532649 C20.9268317,217.532649 0.138603913,238.320877 0.138603913,263.96437 L0.138603913,296.201281 C0.138603913,298.740977 2.19760928,300.799982 4.73730482,300.799982 L205.234058,300.799982 C207.773754,300.799982 209.832759,298.740977 209.832759,296.201281 L209.832759,263.96437 C209.832759,238.320877 189.043942,217.532649 163.399858,217.532649 Z"/>
    <path fill="url(#parent-b)" d="M104.985092,300.799982 L205.233469,300.799982 C207.773164,300.799982 209.832169,298.740977 209.832169,296.201281 L209.832169,263.96437 C209.832169,238.320877 189.043942,217.532649 163.400448,217.532649 L104.985092,217.532649 L104.985092,300.799982 Z"/>
    <path fill="url(#parent-c)" d="M166.705709,222.700511 L58.1924106,222.700511 C34.3743603,222.700511 15.0659505,242.00892 15.0659505,265.826971 L15.0659505,296.528622 C15.0659505,298.887838 16.9780947,300.799982 19.3373102,300.799982 L205.233469,300.799982 C207.773164,300.799982 209.832169,298.740977 209.832169,296.201281 L209.832169,265.826971 C209.832169,242.00892 190.52376,222.700511 166.705709,222.700511 Z"/>
    <path fill="url(#parent-d)" d="M151.777773,222.700511 L43.2644743,222.700511 C19.4464239,222.700511 0.138014109,242.00892 0.138014109,265.826971 L0.138014109,296.528622 C0.138014109,298.887838 2.05015831,300.799982 4.40937385,300.799982 L190.305532,300.799982 C192.845228,300.799982 194.904233,298.740977 194.904233,296.201281 L194.904233,265.826971 C194.904233,242.00892 175.595823,222.700511 151.777773,222.700511 Z"/>
    <path fill="url(#parent-e)" d="M143.107066,217.532649 L67.8787599,217.532649 C67.4541011,218.614939 67.2128713,219.789828 67.2128713,221.022519 L67.2128713,222.355475 C67.2128713,225.315111 67.628683,228.259412 68.4479206,231.103447 L78.6291153,266.445675 C79.0189757,267.799275 79.8694729,268.824354 80.9264015,269.476677 L112.249706,300.799982 L205.233469,300.799982 C207.773164,300.799982 209.832169,298.740977 209.832169,296.201281 L209.832169,284.257163 L143.107066,217.532649 Z"/>
    <path fill="url(#parent-f)" d="M110.337562,250.85362 L99.6326215,250.85362 C87.0131776,250.85362 76.7824393,240.623471 76.7824393,228.003437 L76.7824393,196.532682 L133.187154,196.532682 L133.187154,228.003437 C133.187744,240.622881 122.957006,250.85362 110.337562,250.85362 Z"/>
    <path fill="url(#parent-g)" d="M133.187744,228.003437 L133.187744,196.532682 L76.7830291,196.532682 L76.7830291,199.190928 L123.949056,246.356955 C129.554552,242.192939 133.187744,235.522847 133.187744,228.003437 Z"/>
    <circle cx="37.899" cy="116.466" r="19.823" fill="url(#parent-h)"/>
    <circle cx="172.071" cy="116.466" r="19.823" fill="url(#parent-h)"/>
    <path fill="url(#parent-i)" d="M104.985092,205.373252 C67.8221387,205.373252 37.695546,175.246659 37.695546,138.083706 L37.695546,67.2895458 C37.695546,30.1265927 67.8221387,2.84217094e-14 104.985092,2.84217094e-14 C142.148045,2.84217094e-14 172.274638,30.1265927 172.274638,67.2895458 L172.274638,138.083706 C172.274638,175.246659 142.148045,205.373252 104.985092,205.373252 Z"/>
    <path fill="url(#parent-j)" d="M104.985092,197.358407 C70.7227942,197.358407 42.9471598,169.583362 42.9471598,135.321065 L42.9471598,70.0521872 C42.9471598,35.7898896 70.7222044,8.01484501 104.984502,8.01484501 C139.2468,8.01484501 167.021844,35.7898896 167.021844,70.0521872 L167.021844,135.321065 C167.021844,169.583362 139.247389,197.358407 104.985092,197.358407 Z"/>
    <circle cx="71.182" cy="110.765" r="11.946" fill="url(#parent-k)"/>
    <circle cx="71.182" cy="110.765" r="9.97" fill="url(#parent-l)"/>
    <path fill="url(#parent-m)" d="M76.5252849,100.078513 C77.330957,101.686319 77.785106,103.501145 77.785106,105.422136 C77.785106,112.019683 72.4367643,117.368024 65.839218,117.368024 C63.9182268,117.368024 62.1034002,116.913875 60.4955948,116.108203 C62.4566927,120.022732 66.5051066,122.710468 71.1816616,122.710468 C77.7792079,122.710468 83.1275496,117.362126 83.1275496,110.76458 C83.1275496,106.088025 80.4398132,102.040201 76.5252849,100.078513 Z"/>
    <circle cx="138.789" cy="110.765" r="11.946" fill="url(#parent-k)"/>
    <circle cx="138.789" cy="110.765" r="9.97" fill="url(#parent-l)"/>
    <path fill="url(#parent-n)" d="M144.132145,100.078513 C144.937817,101.686319 145.391966,103.501145 145.391966,105.422136 C145.391966,112.019683 140.043625,117.368024 133.446078,117.368024 C131.525087,117.368024 129.710261,116.913875 128.102455,116.108203 C130.063553,120.022732 134.111967,122.710468 138.788522,122.710468 C145.386068,122.710468 150.73441,117.362126 150.73441,110.76458 C150.73441,106.088025 148.046674,102.040201 144.132145,100.078513 Z"/>
    <path fill="url(#parent-o)" d="M154.757462,183.367079 L128.266421,156.876038 C125.655949,154.004283 121.985599,152.114551 117.871717,151.834394 C117.284862,152.908427 116.51045,153.869807 115.592715,154.67489 C113.788505,156.254384 111.422211,157.222253 108.806431,157.222253 L101.164342,157.222253 C99.1283392,157.222253 97.2450954,156.630089 95.6573433,155.622704 C95.5287661,155.422761 95.3960602,155.225177 95.2816382,155.016386 C95.1619081,155.024643 95.0433575,155.038799 94.9242171,155.049415 C94.6700116,154.697892 94.4299614,154.336342 94.2211709,153.955329 C94.1014407,153.963586 93.9828901,153.977741 93.8637497,153.988358 C93.6095442,153.636835 93.369494,153.275285 93.1607035,152.894272 C93.0409733,152.902529 92.9224227,152.916684 92.8032823,152.927301 C92.5490768,152.575778 92.3090267,152.214228 92.1002361,151.833214 C84.0399762,152.382912 77.6718636,159.100188 77.6718636,167.30436 L77.6718636,169.421166 C77.6718636,171.143984 78.5046667,172.670396 79.7863105,173.631187 L111.236423,205.081299 C128.436874,203.497086 143.764697,195.442134 154.757462,183.367079 L154.757462,183.367079 Z"/>
    <path fill="url(#parent-p)" d="M132.2995,167.30495 L132.2995,169.421756 C132.2995,172.324771 129.945592,174.684576 127.03609,174.684576 L82.9335041,174.684576 C80.0240015,174.684576 77.6700942,172.324771 77.6700942,169.421756 L77.6700942,167.30495 C77.6700942,159.101368 84.0382068,152.383502 92.0984667,151.833804 C92.4482204,152.470792 92.8663913,153.070033 93.3346956,153.619141 C95.2138108,155.81675 98.0106608,157.221663 101.163752,157.221663 L108.805841,157.221663 C111.421622,157.221663 113.787915,156.253795 115.592125,154.6743 C116.50986,153.868628 117.284272,152.907247 117.871127,151.833804 C125.931387,152.383502 132.2995,159.101368 132.2995,167.30495 L132.2995,167.30495 Z"/>
    <path fill="url(#parent-q)" d="M122.10415,167.30495 L122.10415,174.684576 L82.9335041,174.684576 C80.0240015,174.684576 77.6700942,172.324771 77.6700942,169.421756 L77.6700942,167.30495 C77.6700942,159.101368 84.0382068,152.383502 92.0984667,151.833804 C92.4482204,152.470792 92.8663913,153.070033 93.3346956,153.619141 C95.2138108,155.81675 98.0106608,157.221663 101.163752,157.221663 L108.805841,157.221663 C111.421622,157.221663 113.787915,156.253795 115.592125,154.6743 C119.532015,157.484715 122.10415,162.098161 122.10415,167.30495 L122.10415,167.30495 Z"/>
    <path fill="url(#parent-r)" d="M132.2995,167.30495 L132.2995,169.421756 C132.2995,172.324771 129.945592,174.684576 127.03609,174.684576 L90.3939334,174.684576 C87.4909187,174.684576 85.1305236,172.324771 85.1305236,169.421756 L85.1305236,167.30495 C85.1305236,161.386268 88.4517092,156.235511 93.3341058,153.61973 C95.213221,155.81734 98.010071,157.222253 101.163163,157.222253 L108.805252,157.222253 C111.421032,157.222253 113.787325,156.254384 115.591535,154.67489 C116.50927,153.869217 117.283682,152.907837 117.870537,151.834394 C125.931387,152.383502 132.2995,159.101368 132.2995,167.30495 L132.2995,167.30495 Z"/>
    <path fill="url(#parent-s)" d="M108.807611,157.222842 L101.162573,157.222842 C95.03569,157.222842 90.2624072,151.908709 90.9176793,145.817215 L94.9147802,108.65957 L115.055403,108.65957 L119.052504,145.817215 C119.707776,151.908709 114.934494,157.222842 108.807611,157.222842 Z"/>
    <path fill="url(#parent-t)" d="M34.1809046,111.394491 L27.7685568,111.394491 C12.5463083,111.394491 0.205841556,99.0540239 0.205841556,83.8317754 L0.205841556,54.176436 C0.205841556,34.0694317 16.5062516,17.7690217 36.6132559,17.7690217 L59.4970568,17.7690217 C51.8207593,24.3748252 47.4060772,33.999245 47.4060772,44.1267676 L47.4060772,98.1693181 C47.4060772,105.473449 41.485036,111.394491 34.1809046,111.394491 Z"/>
    <path fill="url(#parent-u)" d="M175.789279,111.394491 L182.201627,111.394491 C197.423875,111.394491 209.764342,99.0540239 209.764342,83.8317754 L209.764342,54.176436 C209.764342,34.0694317 193.463932,17.7690217 173.356928,17.7690217 L150.473127,17.7690217 C158.149424,24.3748252 162.564106,33.999245 162.564106,44.1267676 L162.564106,98.1693181 C162.564106,105.473449 168.485148,111.394491 175.789279,111.394491 L175.789279,111.394491 Z"/>
    <path fill="url(#parent-v)" d="M178.375569,82.2163026 L174.285869,82.2163026 L174.285869,111.303071 C174.780124,111.359102 175.280278,111.394491 175.789279,111.394491 L182.201627,111.394491 C189.250373,111.394491 195.678056,108.745092 200.551605,104.392339 L178.375569,82.2163026 Z"/>
    <polygon fill="url(#parent-w)" points="95.684 93.105 114.286 93.105 114.286 101.08 95.684 101.08"/>
    <path fill="url(#parent-x)" d="M96.0631284,80.9871513 L33.6606976,80.9871513 C32.2734789,80.9871513 31.1493127,82.2611276 31.1493127,83.8323652 L31.1493127,133.486775 C31.1493127,135.058602 32.2734789,136.331989 33.6606976,136.331989 L96.0637182,136.331989 C97.4509369,136.331989 98.5751031,135.058012 98.5751031,133.486775 L98.5751031,83.8323652 C98.5751031,82.2611276 97.4503471,80.9871513 96.0631284,80.9871513 Z M91.8047443,127.569272 C91.8047443,128.857404 90.8834707,129.901357 89.7463288,129.901357 L39.9774972,129.901357 C38.8403553,129.901357 37.9190817,128.857404 37.9190817,127.569272 L37.9190817,89.7498676 C37.9190817,88.4617359 38.8403553,87.417783 39.9774972,87.417783 L89.7463288,87.417783 C90.8834707,87.417783 91.8047443,88.4617359 91.8047443,89.7498676 L91.8047443,127.569272 Z"/>
    <path fill="url(#parent-y)" d="M36.2617327,133.700874 L93.4620933,133.700874 C94.7248634,133.700874 95.7493527,132.54014 95.7493527,131.109275 L95.7493527,86.2098647 C95.7493527,84.7790004 94.7248634,83.6182664 93.4620933,83.6182664 L36.2617327,83.6182664 C34.9989626,83.6182664 33.9744733,84.7790004 33.9744733,86.2098647 L33.9744733,131.109275 C33.9744733,132.54014 34.9989626,133.700874 36.2617327,133.700874 Z M37.9190817,89.7498676 C37.9190817,88.4617359 38.8403553,87.417783 39.9774972,87.417783 L89.7463288,87.417783 C90.8834707,87.417783 91.8047443,88.4617359 91.8047443,89.7498676 L91.8047443,127.569272 C91.8047443,128.857404 90.8834707,129.901357 89.7463288,129.901357 L39.9774972,129.901357 C38.8403553,129.901357 37.9190817,128.857404 37.9190817,127.569272 L37.9190817,89.7498676 Z"/>
    <path fill="url(#parent-z)" d="M98.5745133,133.486775 L98.5745133,83.8323652 C98.5745133,83.2319448 98.4093683,82.67517 98.1292114,82.2163026 L90.9642738,87.8725218 C91.4732745,88.2971806 91.8053341,88.9789939 91.8053341,89.7504574 L91.8053341,127.569862 C91.8053341,128.857994 90.8840605,129.901947 89.7469186,129.901947 L39.978087,129.901947 C39.4230816,129.901947 38.9199789,129.65187 38.549582,129.247264 L31.4548311,134.847452 C31.8806695,135.732158 32.7087541,136.332579 33.6606976,136.332579 L96.0637182,136.332579 C97.4503471,136.332579 98.5745133,135.058602 98.5745133,133.486775 L98.5745133,133.486775 Z"/>
    <path fill="url(#parent-A)" d="M37.9190817,89.7498676 C37.9190817,88.4617359 38.8403553,87.417783 39.9774972,87.417783 L89.7463288,87.417783 C90.8834707,87.417783 91.8047443,88.4617359 91.8047443,89.7498676 L91.8047443,127.569272 C91.8047443,128.857404 90.8834707,129.901357 89.7463288,129.901357 L39.9774972,129.901357 C38.8403553,129.901357 37.9190817,128.857404 37.9190817,127.569272 L37.9190817,89.7498676 Z"/>
    <path fill="url(#parent-x)" d="M176.309486,80.9871513 L113.907055,80.9871513 C112.519836,80.9871513 111.39567,82.2611276 111.39567,83.8323652 L111.39567,133.486775 C111.39567,135.058602 112.519836,136.331989 113.907055,136.331989 L176.310076,136.331989 C177.697295,136.331989 178.821461,135.058012 178.821461,133.486775 L178.821461,83.8323652 C178.821461,82.2611276 177.696705,80.9871513 176.309486,80.9871513 L176.309486,80.9871513 Z M172.051102,127.569272 C172.051102,128.857404 171.129828,129.901357 169.992686,129.901357 L120.223855,129.901357 C119.086713,129.901357 118.165439,128.857404 118.165439,127.569272 L118.165439,89.7498676 C118.165439,88.4617359 119.086713,87.417783 120.223855,87.417783 L169.992686,87.417783 C171.129828,87.417783 172.051102,88.4617359 172.051102,89.7498676 L172.051102,127.569272 Z"/>
    <path fill="url(#parent-y)" d="M116.50809,133.700874 L173.708451,133.700874 C174.971221,133.700874 175.99571,132.54014 175.99571,131.109275 L175.99571,86.2098647 C175.99571,84.7790004 174.971221,83.6182664 173.708451,83.6182664 L116.50809,83.6182664 C115.24532,83.6182664 114.220831,84.7790004 114.220831,86.2098647 L114.220831,131.109275 C114.220831,132.54014 115.24532,133.700874 116.50809,133.700874 L116.50809,133.700874 Z M118.165439,89.7498676 C118.165439,88.4617359 119.086713,87.417783 120.223855,87.417783 L169.992686,87.417783 C171.129828,87.417783 172.051102,88.4617359 172.051102,89.7498676 L172.051102,127.569272 C172.051102,128.857404 171.129828,129.901357 169.992686,129.901357 L120.223855,129.901357 C119.086713,129.901357 118.165439,128.857404 118.165439,127.569272 L118.165439,89.7498676 Z"/>
    <path fill="url(#parent-z)" d="M178.820871,133.486775 L178.820871,83.8323652 C178.820871,83.2319448 178.655726,82.67517 178.375569,82.2163026 L171.210631,87.8725218 C171.719632,88.2971806 172.051692,88.9789939 172.051692,89.7504574 L172.051692,127.569862 C172.051692,128.857994 171.130418,129.901947 169.993276,129.901947 L120.224445,129.901947 C119.669439,129.901947 119.166336,129.65187 118.79594,129.247264 L111.701189,134.847452 C112.127027,135.732158 112.955112,136.332579 113.907055,136.332579 L176.310076,136.332579 C177.696705,136.332579 178.820871,135.058602 178.820871,133.486775 L178.820871,133.486775 Z"/>
    <path fill="url(#parent-A)" d="M118.165439,89.7498676 C118.165439,88.4617359 119.086713,87.417783 120.223855,87.417783 L169.992686,87.417783 C171.129828,87.417783 172.051102,88.4617359 172.051102,89.7498676 L172.051102,127.569272 C172.051102,128.857404 171.129828,129.901357 169.992686,129.901357 L120.223855,129.901357 C119.086713,129.901357 118.165439,128.857404 118.165439,127.569272 L118.165439,89.7498676 Z"/>
    <path fill="url(#parent-B)" d="M172.275817,136.331989 L172.275817,138.086065 C172.275817,174.67219 143.075806,204.433694 106.708499,205.345531 L37.6943664,136.331989 L96.0631284,136.331989 C97.4491675,136.331989 98.5727439,135.058602 98.5727439,133.485005 L98.5727439,101.082359 L111.39685,101.082359 L111.39685,133.485005 C111.39685,135.058602 112.520426,136.331989 113.906465,136.331989 L172.275817,136.331989 Z"/>
    <path fill="url(#parent-C)" d="M76.7824393 211.452951L104.985092 250.85362 87.5263069 268.690469C84.6799134 271.598202 79.7556407 270.356075 78.6291153 266.446265L68.4479206 231.104036C67.628683 228.260002 67.2128713 225.315701 67.2128713 222.356065L67.2128713 221.023108C67.2128713 215.737286 71.4972067 211.452951 76.7824393 211.452951zM133.187744 211.452951L104.985092 250.85362 122.443877 268.690469C125.29027 271.598202 130.214543 270.356075 131.341068 266.446265L141.522263 231.104036C142.341501 228.260002 142.757312 225.315701 142.757312 222.356065L142.757312 221.023108C142.757312 215.737286 138.472387 211.452951 133.187744 211.452951L133.187744 211.452951z"/>
  </g>
</svg>
